# xmcd
#
# Track frame offsets:
#  150
#  17005
#  31990
#  49680
#  67877
#  82800
#  95675
#  110087
#  128862
#  148242
#  164500
#  182422
#  194112
#
# Disc length: 2790 seconds
#
# Revision: 2
# Processed by: cddbd v1.5.1PL0 Copyright (c) Steve Scherf et al.
# Submitted via: Collectorz.com Music Collector 6.9
#
DISCID=b40ae40d
DTITLE=Graeme Connors - The Moment
DYEAR=2004
DGENRE=Country
TTITLE0=Life Ain't Perfect
TTITLE1=Hard Decisions
TTITLE2=What If
TTITLE3=On A Roll
TTITLE4=You Are Everywhere
TTITLE5=Aussie Girls
TTITLE6=I'm In The Middle Of This
TTITLE7=Only One You
TTITLE8=You Take The Wheel
TTITLE9=Before I Went Crazy On You
TTITLE10=Go On
TTITLE11=You Remind Me Of Someone
TTITLE12=I Dream Of Highways (Feat. Felicity)
EXTD=
EXTT0=
EXTT1=
EXTT2=
EXTT3=
EXTT4=
EXTT5=
EXTT6=
EXTT7=
EXTT8=
EXTT9=
EXTT10=
EXTT11=
EXTT12=
PLAYORDER=
